<?xml version="1.0" standalone="no"?>
<!DOCTYPE svg PUBLIC "-//W3C//DTD SVG 20010904//EN"
 "http://www.w3.org/TR/2001/REC-SVG-20010904/DTD/svg10.dtd">
<svg version="1.0" xmlns="http://www.w3.org/2000/svg"
 width="5.000000pt" height="5.000000pt" viewBox="0 0 5.000000 5.000000"
 preserveAspectRatio="xMidYMid meet">

<g transform="translate(0.000000,5.000000) scale(0.100000,-0.100000)"
fill="#000000" stroke="none">
<path d="M347 591 c-8 -40 -52 -88 -92 -101 -32 -11 -33 -12 -17 -29 9 -9 19
-14 22 -11 3 4 23 10 46 13 40 7 41 6 94 -58 30 -36 58 -65 64 -65 5 0 1 10
-10 23 -106 119 -105 117 -88 149 10 20 14 42 9 64 -8 44 -21 51 -28 15z"/>
<path d="M538 319 c-12 -29 -27 -44 -57 -58 -47 -20 -44 -31 9 -31 48 0 80 33
80 83 0 50 -12 52 -32 6z"/>
<path d="M410 270 c-9 -6 -10 -10 -3 -10 6 0 15 5 18 10 8 12 4 12 -15 0z"/>
<path d="M201 244 c0 -11 3 -14 6 -6 3 7 2 16 -1 19 -3 4 -6 -2 -5 -13z"/>
<path d="M240 170 c-15 -36 -61 -77 -97 -86 -34 -9 -10 -24 39 -24 49 0 88 44
88 101 0 47 -13 50 -30 9z"/>
</g>
</svg>
